# xmcd CD database file
#
# Track frame offsets:
#	150
#	19135
#	41342
#	63437
#	81220
#	101875
#	126955
#	145762
#	166812
#	186855
#
# Disc length: 2770 seconds
#
# Revision: 0
# Processed by: cddbd v1.5PL3 Copyright (c) Steve Scherf et al.
# Submitted via: CDex 1.51
#
DISCID=830ad00a
DTITLE=寺尾友美 - ずっと逢いたかった
DYEAR=1992
DGENRE=Pop
TTITLE0=好きだったのに
TTITLE1=諦めたりしないから
TTITLE2=メリー・メリークリスマス
TTITLE3=僕たちの恋
TTITLE4=どうにかしてよ
TTITLE5=思うまま−Out of Love−
TTITLE6=気に入らないよ
TTITLE7=My Darling
TTITLE8=あなたがいれば
TTITLE9=ずっと逢いたかった
EXTD=YEAR: 1992
EXTT0=
EXTT1=
EXTT2=
EXTT3=
EXTT4=
EXTT5=
EXTT6=
EXTT7=
EXTT8=
EXTT9=
PLAYORDER=
